<svg width="180" height="180" viewBox="0 0 180 180" fill="none" xmlns="http://www.w3.org/2000/svg">
<rect width="180" height="180" rx="40" fill="#0F1A15"/>
<rect width="180" height="180" rx="40" fill="url(#g)" fill-opacity="0.9"/>
<path d="M45 108c0-5 3-9 7-11l6-14c3-7 10-11 17-11h30c7 0 14 4 17 11l6 14c4 2 7 6 7 11v18a6 6 0 0 1-6 6h-6a6 6 0 0 1-6-6v-4H63v4a6 6 0 0 1-6 6h-6a6 6 0 0 1-6-6z" fill="white"/>
<circle cx="66" cy="112" r="8" fill="#0F1A15"/>
<circle cx="114" cy="112" r="8" fill="#0F1A15"/>
<path d="M62 88h56l-5-12a6 6 0 0 0-5.5-3.5H72.5A6 6 0 0 0 67 76z" fill="#0F1A15" fill-opacity="0.25"/>
<defs>
<linearGradient id="g" x1="0" y1="0" x2="180" y2="180" gradientUnits="userSpaceOnUse">
<stop stop-color="#22C55E"/>
<stop offset="1" stop-color="#0EA968"/>
</linearGradient>
</defs>
</svg>
